<svg id="Capa_1" xmlns="http://www.w3.org/2000/svg" viewBox="0 0 170 56"><style>.st0{fill-rule:evenodd;clip-rule:evenodd;fill:#fff}.st1{fill:#ffb819}</style><path class="st0" d="M31.3 15.3c0 2.4-2 3.4-4.4 3.4-2.4 0-4.4-1.5-4.4-3.4s2-3.4 4.4-3.4c2.4 0 4.4 1.5 4.4 3.4m-16.7-3.7S11.1 23.4 8.8 33l-1 3.7c-.4 1.7.7 1.8.7 1.8H15l-1.6 5.9H6.2h.1s-3.5.2-5-1.5C-.3 41.2.1 39.2.2 38.2c.1-.8 3.2-12.5 3.2-12.5l4-14.1h7.2zm46.1 0l-5.3 21.5C52.1 44.2 41 44.4 41 44.4c-6.4.5-12-2.1-12.6-7.8-1.2-12 11.7-19.5 23-14.9.7-3.4 2-6.6 2.6-10.1h6.7zM37.1 29.1c-1.3 2.1-2.3 6.1-.9 8.7 1.5 2.7 6.7 2.8 9.2.9 2.7-2.1 3.6-8.1 4.6-11.8-4.2-3.9-10.6-1.5-12.9 2.2M64.7 34c-1.2 7.7 10.4 6.5 14.2 3.6-.4 1.8-.5 3.9-.9 5.6-9.2 2.8-19.5.8-20.4-7.3-1.1-9.8 7-15 15.5-15.6 4.8-.4 10.4.5 11.8 3.9.9 2.1.1 4.8-1 6.2-3.4 4.1-12.6 5.1-19.2 3.6m6.8-3.8c2.9-.2 8-1.2 7.1-3.9-.6-1.7-3.9-1.9-5.9-1.6-3.1.6-5.4 2.9-6.6 5.1 1.4.4 3.3.6 5.4.4m35.6-9.5s-1.8 5.2-1.9 5.3c-1.9-.5-2.7-1.6-5.2-1.3-6.6.7-8.1 9-9.3 15.7l-.6 4h-6.8c1.8-7.7 3.7-16.1 5.7-23.8h6.7l-.4 1.9c2.8-1.8 7.5-2.9 11.8-1.8m-77.9.1c-1.7 7.8-3.8 15.8-5.4 23.6h-6.9c1.4-6.2 2.9-12.4 4.3-18.6h-3.6l1.3-5h10.3z"/><path class="st1" d="M139.8 18.9c1.3 0 2.4-.7 2.5-1.6l1.3-14.6c0-1.4-1.7-2.6-3.8-2.6-2.1 0-3.8 1.2-3.8 2.6l1.3 14.6c.1.9 1.2 1.6 2.5 1.6zm-7.9 4.5c.7-1.1.6-2.4-.1-3l-12-8.4c-1.2-.7-3.1.1-4.2 2-1.1 1.8-.9 3.9.4 4.6l13.3 6.2c.8.4 2-.2 2.6-1.4zm15.8 0c.7 1.1 1.8 1.7 2.6 1.4l13.3-6.2c1.3-.7 1.4-2.8.4-4.6-1.1-1.8-2.9-2.7-4.2-2l-12 8.4c-.7.6-.7 1.9-.1 3zm-7.9 13.7c1.3 0 2.4.7 2.5 1.6l1.3 14.6c0 1.4-1.7 2.6-3.8 2.6-2.1 0-3.8-1.2-3.8-2.6l1.3-14.6c.1-.9 1.2-1.6 2.5-1.6zm7.9-4.5c.7-1.1 1.8-1.7 2.6-1.4l13.3 6.2c1.3.7 1.4 2.8.4 4.6-1.1 1.8-2.9 2.7-4.2 2l-12-8.4c-.7-.6-.7-1.9-.1-3zm-15.8 0c.7 1.1.6 2.4-.1 3l-12 8.4c-1.2.7-3.1-.2-4.2-2s-.9-3.9.4-4.6l13.3-6.2c.8-.4 2 .2 2.6 1.4zm36 9.6c.4 0 .7.1 1 .3.3.2.6.4.8.8.2.3.3.7.3 1 0 .4-.1.7-.3 1-.2.3-.4.6-.8.8-.3.2-.7.3-1 .3-.4 0-.7-.1-1-.3-.3-.2-.6-.4-.8-.8-.2-.3-.3-.7-.3-1 0-.4.1-.7.3-1 .2-.3.4-.6.8-.8.3-.2.7-.3 1-.3zm0 .3c-.3 0-.6.1-.9.2-.3.2-.5.4-.7.6-.2.3-.2.6-.2.9 0 .3.1.6.2.9.2.3.4.5.6.6.3.2.6.2.9.2.3 0 .6-.1.9-.2.3-.2.5-.4.6-.6.2-.3.2-.6.2-.9 0-.3-.1-.6-.2-.9-.2-.3-.4-.5-.7-.6-.1-.1-.4-.2-.7-.2zm-.9 2.9v-2.2h.8c.3 0 .5 0 .6.1.1 0 .2.1.3.2.1.1.1.2.1.3 0 .2-.1.3-.2.4-.1.1-.3.2-.5.2.1 0 .1.1.2.1.1.1.2.2.3.4l.3.4h-.4l-.2-.4c-.2-.3-.3-.5-.4-.5-.1-.1-.2-.1-.3-.1h-.2v1h-.4zm.4-1.3h.4c.2 0 .4 0 .4-.1.1-.1.1-.1.1-.2s0-.1-.1-.2c0-.1-.1-.1-.2-.1h-.8v.6z"/></svg>